<svg width="1200" height="1200" viewBox="0 0 1200 1200" fill="none" xmlns="http://www.w3.org/2000/svg">
  <defs>
    <linearGradient id="bg" x1="80" y1="80" x2="1120" y2="1120" gradientUnits="userSpaceOnUse">
      <stop stop-color="#EEF5EF"/>
      <stop offset="1" stop-color="#F7ECEF"/>
    </linearGradient>
    <radialGradient id="glow1" cx="0" cy="0" r="1" gradientUnits="userSpaceOnUse" gradientTransform="translate(340 300) rotate(90) scale(290)">
      <stop stop-color="#CBE0D6" stop-opacity="0.9"/>
      <stop offset="1" stop-color="#CBE0D6" stop-opacity="0"/>
    </radialGradient>
    <radialGradient id="glow2" cx="0" cy="0" r="1" gradientUnits="userSpaceOnUse" gradientTransform="translate(920 870) rotate(90) scale(260)">
      <stop stop-color="#F0D7DD" stop-opacity="0.95"/>
      <stop offset="1" stop-color="#F0D7DD" stop-opacity="0"/>
    </radialGradient>
  </defs>
  <rect width="1200" height="1200" rx="56" fill="url(#bg)"/>
  <rect width="1200" height="1200" rx="56" fill="url(#glow1)"/>
  <rect width="1200" height="1200" rx="56" fill="url(#glow2)"/>
  <rect x="160" y="170" width="880" height="860" rx="42" fill="#FFFCFA" stroke="#E7DDD5" stroke-width="3"/>
  <rect x="230" y="255" width="340" height="340" rx="34" fill="#E8F1E8"/>
  <rect x="630" y="255" width="340" height="160" rx="28" fill="#F8EAEE"/>
  <rect x="630" y="435" width="340" height="160" rx="28" fill="#F4F0E9"/>
  <rect x="230" y="640" width="740" height="120" rx="26" fill="#F8F5F0"/>
  <rect x="230" y="790" width="520" height="22" rx="11" fill="#D9D2C8"/>
  <rect x="230" y="838" width="390" height="18" rx="9" fill="#E7E0D7"/>
  <rect x="230" y="900" width="250" height="70" rx="22" fill="#6E8A76"/>
  <circle cx="400" cy="425" r="82" fill="#D8E6DC"/>
  <circle cx="770" cy="335" r="28" fill="#D6E4D8"/>
  <circle cx="840" cy="515" r="24" fill="#EACDD6"/>
  <path d="M321 401C321 350.742 361.742 310 412 310C462.258 310 503 350.742 503 401C503 451.258 462.258 492 412 492C361.742 492 321 451.258 321 401Z" fill="#87A38D"/>
  <path d="M714 308H876" stroke="#B1969C" stroke-width="16" stroke-linecap="round"/>
  <path d="M714 362H906" stroke="#C5B0B5" stroke-width="16" stroke-linecap="round"/>
  <path d="M714 486H876" stroke="#B8AE9E" stroke-width="16" stroke-linecap="round"/>
  <path d="M714 540H844" stroke="#CDC4B8" stroke-width="16" stroke-linecap="round"/>
  <text x="600" y="1035" text-anchor="middle" fill="#604E45" font-family="Georgia, 'Times New Roman', serif" font-size="56" font-weight="700">Nexa Images</text>
  <text x="600" y="1085" text-anchor="middle" fill="#8F7E73" font-family="Arial, sans-serif" font-size="26" letter-spacing="4">SUBSTITUA PELA SUA IMAGEM</text>
</svg>
